<svg width="11" height="11" viewBox="0 0 11 11" fill="none" xmlns="http://www.w3.org/2000/svg">
<path d="M6.10113 0.385C6.05375 0.328186 5.99506 0.281867 5.92878 0.248996C5.86251 0.216126 5.79011 0.197424 5.71621 0.194085C5.64231 0.190746 5.56852 0.202842 5.49955 0.229602C5.43059 0.256362 5.36795 0.297198 5.31564 0.349508C5.26333 0.401818 5.22249 0.464454 5.19573 0.533422C5.16897 0.60239 5.15688 0.676177 5.16022 0.750079C5.16356 0.823981 5.18226 0.896376 5.21513 0.96265C5.248 1.02892 5.29432 1.08762 5.35113 1.135L9.17763 4.966H0.505708C0.369172 4.97324 0.240617 5.03258 0.146531 5.13179C0.0524462 5.231 0 5.36252 0 5.49925C0 5.63598 0.0524462 5.7675 0.146531 5.86671C0.240617 5.96592 0.369172 6.02526 0.505708 6.0325C0.642244 6.03974 9.17763 6.0325 9.17763 6.0325L5.34513 9.859C5.24867 9.96002 5.19485 10.0943 5.19485 10.234C5.19485 10.3737 5.24867 10.508 5.34513 10.609C5.39432 10.6583 5.45277 10.6975 5.51712 10.7242C5.58147 10.7509 5.65046 10.7647 5.72013 10.7647C5.78981 10.7647 5.8588 10.7509 5.92315 10.7242C5.9875 10.6975 6.04595 10.6583 6.09514 10.609L10.8351 5.869C10.8856 5.82044 10.9257 5.7622 10.9531 5.69776C10.9805 5.63333 10.9947 5.56402 10.9947 5.494C10.9947 5.42398 10.9805 5.35467 10.9531 5.29024C10.9257 5.2258 10.8856 5.16756 10.8351 5.119L6.10113 0.385Z" fill="white"/>
</svg>
